<svg xmlns="http://www.w3.org/2000/svg" xmlns:xlink="http://www.w3.org/1999/xlink" width="400" zoomAndPan="magnify" viewBox="0 0 300 299.999988" height="400" preserveAspectRatio="xMidYMid meet" version="1.0"><defs><clipPath id="3087a3c35a"><path d="M 10.28125 105 L 48 105 L 48 217 L 10.28125 217 Z M 10.28125 105 " clip-rule="nonzero"/></clipPath></defs><path fill="#d9d9d9" d="M 222.078125 111.921875 C 225.695312 113.683594 229.292969 109.492188 226.980469 106.207031 C 216.0625 90.683594 202.277344 71.101562 188.730469 51.855469 C 188.730469 51.855469 164.667969 17.671875 153.925781 2.40625 C 152.363281 0.183594 149.0625 0.214844 147.53125 2.453125 L 112.511719 53.566406 C 111.171875 55.523438 111.886719 58.210938 114.019531 59.253906 Z M 222.078125 111.921875 " fill-opacity="1" fill-rule="nonzero"/><path fill="#d9d9d9" d="M 19.828125 234.894531 L 118.964844 291.992188 C 122.691406 294.140625 126.648438 289.5625 123.957031 286.210938 C 98.792969 254.8125 68.8125 217.367188 56.105469 201.351562 C 54.714844 199.601562 52.140625 199.382812 50.464844 200.867188 L 19.1875 228.625 C 17.203125 230.386719 17.527344 233.570312 19.828125 234.894531 Z M 19.828125 234.894531 " fill-opacity="1" fill-rule="nonzero"/><path fill="#d9d9d9" d="M 99.101562 52.484375 L 129.535156 8.058594 C 131.875 4.648438 127.960938 0.433594 124.375 2.503906 L 37.21875 52.707031 C 33.582031 54.800781 35.371094 60.367188 39.550781 59.9375 C 59.484375 57.898438 88.09375 54.960938 96.277344 54.160156 C 97.421875 54.046875 98.453125 53.433594 99.101562 52.484375 Z M 99.101562 52.484375 " fill-opacity="1" fill-rule="nonzero"/><g clip-path="url(#3087a3c35a)"><path fill="#d9d9d9" d="M 10.238281 109.050781 L 10.238281 212.304688 C 10.238281 215.660156 14.210938 217.4375 16.722656 215.210938 L 46.179688 189.066406 C 47.390625 187.996094 47.808594 186.289062 47.230469 184.78125 L 17.773438 107.667969 C 16.234375 103.636719 10.238281 104.738281 10.238281 109.050781 Z M 10.238281 109.050781 " fill-opacity="1" fill-rule="nonzero"/></g><path fill="#d9d9d9" d="M 171.023438 288.148438 L 169.839844 290.199219 C 167.855469 293.640625 171.714844 297.488281 175.164062 295.5 L 283.585938 233.050781 C 285.265625 232.082031 285.972656 230.027344 285.25 228.234375 L 255.453125 154.367188 C 254.242188 151.359375 250.09375 151.058594 248.472656 153.867188 C 223.011719 197.925781 190.835938 253.761719 171.023438 288.148438 Z M 171.023438 288.148438 " fill-opacity="1" fill-rule="nonzero"/><path fill="#d9d9d9" d="M 70.953125 178.917969 L 227.261719 134.972656 C 230.703125 134.003906 231.128906 129.304688 227.914062 127.742188 L 108.523438 69.546875 C 106.441406 68.53125 103.9375 69.542969 103.148438 71.71875 L 66.230469 173.859375 C 65.15625 176.832031 67.902344 179.777344 70.953125 178.917969 Z M 70.953125 178.917969 " fill-opacity="1" fill-rule="nonzero"/><path fill="#d9d9d9" d="M 256.011719 117.585938 C 268.0625 96.964844 278.523438 79.554688 284.511719 69.652344 C 285.640625 67.792969 285.007812 65.382812 283.117188 64.292969 L 178.371094 3.957031 C 174.761719 1.878906 170.832031 6.140625 173.230469 9.546875 C 184.226562 25.171875 198.292969 45.15625 198.292969 45.15625 C 218.054688 73.234375 238.3125 102.007812 249.460938 117.878906 C 251.089844 120.195312 254.578125 120.035156 256.011719 117.585938 Z M 256.011719 117.585938 " fill-opacity="1" fill-rule="nonzero"/><path fill="#d9d9d9" d="M 86.5625 66.835938 C 71.851562 68.335938 37.648438 71.855469 22.429688 73.390625 C 19.878906 73.648438 18.269531 76.242188 19.183594 78.632812 C 27.230469 99.707031 43.570312 142.472656 50.925781 161.722656 C 52.214844 165.089844 57 165.039062 58.226562 161.648438 L 90.621094 72.019531 C 91.59375 69.328125 89.414062 66.546875 86.5625 66.835938 Z M 86.5625 66.835938 " fill-opacity="1" fill-rule="nonzero"/><path fill="#d9d9d9" d="M 260.597656 135.894531 L 282.464844 190.105469 C 284.066406 194.070312 289.972656 192.929688 289.972656 188.65625 L 289.972656 97.289062 C 289.972656 93.339844 284.761719 91.898438 282.738281 95.289062 C 276.53125 105.695312 268.917969 118.574219 260.84375 132.488281 C 260.242188 133.523438 260.148438 134.785156 260.597656 135.894531 Z M 260.597656 135.894531 " fill-opacity="1" fill-rule="nonzero"/><path fill="#d9d9d9" d="M 67.921875 197.460938 C 84.738281 218.601562 121.792969 264.847656 146.847656 296.09375 C 148.5625 298.234375 151.886719 297.96875 153.253906 295.59375 L 159.863281 284.128906 C 177.863281 252.882812 210.058594 197.007812 236.390625 151.4375 C 238.132812 148.417969 235.3125 144.820312 231.953125 145.765625 L 69.925781 191.316406 C 67.25 192.070312 66.195312 195.289062 67.921875 197.460938 Z M 67.921875 197.460938 " fill-opacity="1" fill-rule="nonzero"/></svg>