<svg xmlns="http://www.w3.org/2000/svg" xmlns:xlink="http://www.w3.org/1999/xlink" width="400" zoomAndPan="magnify" viewBox="0 0 300 449.999984" height="600" preserveAspectRatio="xMidYMid meet" version="1.0"><defs><clipPath id="d9d4c47913"><path d="M 3 0 L 300 0 L 300 372 L 3 372 Z M 3 0 " clip-rule="nonzero"/></clipPath><clipPath id="1154d83baa"><path d="M 117.761719 -114.71875 L 484.089844 19.085938 L 342.824219 405.84375 L -23.503906 272.039062 Z M 117.761719 -114.71875 " clip-rule="nonzero"/></clipPath><clipPath id="fb91087ff3"><path d="M 117.761719 -114.71875 L 484.089844 19.085938 L 342.824219 405.84375 L -23.503906 272.039062 Z M 117.761719 -114.71875 " clip-rule="nonzero"/></clipPath></defs><g clip-path="url(#d9d4c47913)"><g clip-path="url(#1154d83baa)"><g clip-path="url(#fb91087ff3)"><path fill="#ffc637" d="M 240.386719 368.390625 C 239.722656 368.144531 239.058594 367.902344 238.394531 367.660156 C 235.492188 366.601562 232.59375 365.542969 229.6875 364.488281 C 226.945312 363.511719 224.5 361.949219 222.066406 360.417969 C 216.132812 356.679688 210.390625 352.644531 204.980469 348.167969 C 201.34375 345.15625 197.871094 341.960938 194.453125 338.703125 C 186.722656 331.332031 179.421875 323.515625 171.441406 316.398438 C 166.328125 311.839844 160.835938 307.796875 154.78125 304.527344 C 151.878906 302.960938 148.957031 301.460938 145.933594 300.128906 C 144.152344 299.347656 142.40625 298.460938 140.542969 297.910156 C 137.046875 296.878906 133.546875 295.863281 129.992188 295.015625 C 125.867188 294.035156 121.714844 293.226562 117.546875 292.476562 C 114.125 291.859375 110.671875 291.453125 107.222656 291.113281 C 100.882812 290.488281 94.515625 290.140625 88.148438 290.113281 C 80.648438 290.085938 73.179688 289.71875 65.738281 288.78125 C 61.761719 288.277344 57.871094 287.414062 53.996094 286.371094 C 49.125 285.066406 44.445312 283.265625 39.773438 281.453125 C 33.558594 279.042969 28.039062 275.476562 23.28125 270.757812 C 21.3125 268.800781 19.460938 266.746094 17.644531 264.648438 C 15.886719 262.621094 14.589844 260.304688 13.269531 258.011719 C 11.972656 255.761719 10.785156 253.449219 9.691406 251.085938 C 7.316406 245.960938 5.824219 240.5625 4.785156 235.042969 C 3.136719 226.296875 2.746094 217.453125 3.222656 208.582031 C 3.457031 204.226562 4.167969 199.925781 5.28125 195.6875 C 5.652344 194.257812 6.035156 192.839844 6.5 191.441406 C 7.449219 189.402344 7.886719 187.207031 8.480469 185.054688 C 9.160156 182.605469 10.769531 180.539062 11.382812 178.066406 C 12.753906 174.792969 14.546875 171.746094 16.351562 168.707031 C 18.554688 165.003906 20.804688 161.339844 23.445312 157.921875 C 25.945312 154.691406 28.628906 151.632812 31.453125 148.695312 C 34.15625 145.886719 36.886719 143.089844 39.738281 140.4375 C 45.539062 135.042969 51.496094 129.824219 57.589844 124.761719 C 63.136719 120.15625 68.554688 115.398438 74.09375 110.789062 C 78.964844 106.738281 83.664062 102.503906 88.167969 98.0625 C 93.9375 92.371094 99.378906 86.394531 103.828125 79.578125 C 106.121094 76.070312 108.167969 72.441406 110.015625 68.671875 C 111.40625 65.839844 112.519531 62.910156 113.414062 59.925781 C 114.378906 56.714844 115.375 53.507812 116.03125 50.199219 C 116.691406 46.847656 117.640625 43.558594 118.410156 40.226562 C 119.085938 37.300781 119.695312 34.359375 120.316406 31.421875 C 121.066406 27.847656 121.796875 24.269531 122.546875 20.695312 C 123.183594 17.640625 123.8125 14.582031 124.492188 11.539062 C 125.003906 9.238281 125.484375 6.921875 126.183594 4.675781 C 127.691406 -0.171875 128.871094 -5.128906 130.726562 -9.859375 C 134.679688 -19.929688 139.878906 -29.265625 147.277344 -37.265625 C 151.179688 -41.488281 155.496094 -45.253906 160.015625 -48.796875 C 164.164062 -52.042969 168.570312 -54.875 173.289062 -57.246094 C 179.332031 -60.28125 185.648438 -62.492188 192.128906 -64.359375 C 201.246094 -66.988281 210.59375 -67.714844 219.996094 -67.863281 C 227.253906 -67.976562 234.519531 -67.835938 241.734375 -66.914062 C 245.175781 -66.472656 248.589844 -65.875 251.964844 -64.996094 C 256.140625 -63.914062 260.253906 -62.671875 264.300781 -61.1875 C 267.628906 -59.96875 270.808594 -58.425781 274.027344 -56.96875 C 276.828125 -55.703125 279.503906 -54.234375 282.195312 -52.773438 C 285.367188 -51.050781 288.269531 -48.929688 291.0625 -46.660156 C 295.015625 -43.445312 298.589844 -39.835938 301.976562 -36.039062 C 304.964844 -32.6875 307.820312 -29.226562 310.800781 -25.871094 C 313.589844 -22.730469 316.582031 -19.785156 319.503906 -16.777344 C 324.296875 -11.84375 329.65625 -7.605469 335.144531 -3.5 C 339.402344 -0.3125 344.027344 2.285156 348.570312 5.007812 C 350.613281 6.234375 352.777344 7.417969 355.265625 7.675781 C 355.726562 7.722656 356.167969 7.949219 356.613281 8.109375 C 359.507812 9.15625 362.390625 10.21875 365.289062 11.253906 C 369.183594 12.644531 372.917969 14.394531 376.6875 16.078125 C 379.59375 17.375 382.476562 18.726562 385.3125 20.15625 C 389.257812 22.140625 392.988281 24.519531 396.582031 27.097656 C 401.050781 30.308594 405.335938 33.75 409.132812 37.726562 C 413.457031 42.257812 417.585938 46.980469 420.894531 52.332031 C 424.765625 58.597656 426.65625 65.464844 427.039062 72.816406 C 427.269531 77.269531 427.128906 81.683594 426.148438 86.019531 C 425.222656 90.105469 423.859375 94.050781 422.054688 97.875 C 418.992188 104.378906 414.460938 109.792969 409.824219 115.15625 C 404.714844 121.058594 400.074219 127.316406 396.039062 133.992188 C 394.582031 136.398438 393.261719 138.925781 392.328125 141.621094 C 391.21875 144.808594 389.957031 147.941406 388.90625 151.148438 C 388.011719 153.890625 387.425781 156.722656 386.785156 159.539062 C 385.921875 163.335938 385.242188 167.160156 384.632812 171 C 383.847656 175.957031 383.160156 180.933594 383.160156 185.953125 C 383.15625 192.390625 383.324219 198.828125 383.484375 205.261719 C 383.546875 207.859375 383.726562 210.457031 383.964844 213.042969 C 384.417969 217.875 384.9375 222.695312 385.460938 227.515625 C 386.0625 233.101562 386.761719 238.675781 387.308594 244.261719 C 388 251.378906 388.75 258.496094 388.460938 265.664062 C 388.210938 271.800781 387.683594 277.914062 386.386719 283.921875 C 385.550781 287.78125 384.554688 291.617188 383.101562 295.3125 C 382.125 297.988281 381.148438 300.667969 380.167969 303.34375 C 376.238281 313.476562 369.824219 321.78125 361.59375 328.792969 C 356.660156 332.992188 351.175781 336.292969 345.46875 339.300781 C 340.191406 342.082031 334.914062 344.875 329.421875 347.199219 C 325.230469 348.976562 321.070312 350.820312 317.003906 352.851562 C 311.71875 355.484375 306.492188 358.230469 301.132812 360.71875 C 296.039062 363.078125 290.796875 365.027344 285.433594 366.695312 C 280.011719 368.378906 274.527344 369.78125 268.902344 370.507812 C 261.25 371.496094 253.621094 371.410156 246.042969 369.742188 C 244.148438 369.332031 242.253906 368.921875 240.386719 368.390625 Z M 240.386719 368.390625 " fill-opacity="1" fill-rule="nonzero"/></g></g></g></svg>