<svg xmlns="http://www.w3.org/2000/svg" xmlns:xlink="http://www.w3.org/1999/xlink" width="400" zoomAndPan="magnify" viewBox="0 0 300 299.999988" height="400" preserveAspectRatio="xMidYMid meet" version="1.0"><defs><clipPath id="e812978409"><path d="M 103 100 L 262 100 L 262 257 L 103 257 Z M 103 100 " clip-rule="nonzero"/></clipPath><clipPath id="f22f768c18"><path d="M 18.804688 65.90625 L 192.984375 -5.5 L 285.730469 220.726562 L 111.546875 292.132812 Z M 18.804688 65.90625 " clip-rule="nonzero"/></clipPath><clipPath id="f957d29939"><path d="M 18.804688 65.90625 L 192.984375 -5.5 L 285.730469 220.726562 L 111.546875 292.132812 Z M 18.804688 65.90625 " clip-rule="nonzero"/></clipPath><clipPath id="6a151e23ce"><path d="M 78 40 L 97 40 L 97 75 L 78 75 Z M 78 40 " clip-rule="nonzero"/></clipPath><clipPath id="4e5bc4b29f"><path d="M 18.804688 65.90625 L 192.984375 -5.5 L 285.730469 220.726562 L 111.546875 292.132812 Z M 18.804688 65.90625 " clip-rule="nonzero"/></clipPath><clipPath id="41e3f62c13"><path d="M 18.804688 65.90625 L 192.984375 -5.5 L 285.730469 220.726562 L 111.546875 292.132812 Z M 18.804688 65.90625 " clip-rule="nonzero"/></clipPath><clipPath id="04d3496c60"><path d="M 43 74 L 79 74 L 79 94 L 43 94 Z M 43 74 " clip-rule="nonzero"/></clipPath><clipPath id="ef9cdfc575"><path d="M 18.804688 65.90625 L 192.984375 -5.5 L 285.730469 220.726562 L 111.546875 292.132812 Z M 18.804688 65.90625 " clip-rule="nonzero"/></clipPath><clipPath id="4c6703e7b9"><path d="M 18.804688 65.90625 L 192.984375 -5.5 L 285.730469 220.726562 L 111.546875 292.132812 Z M 18.804688 65.90625 " clip-rule="nonzero"/></clipPath><clipPath id="dfd04eec7f"><path d="M 43 111 L 79 111 L 79 130 L 43 130 Z M 43 111 " clip-rule="nonzero"/></clipPath><clipPath id="843e76eef4"><path d="M 18.804688 65.90625 L 192.984375 -5.5 L 285.730469 220.726562 L 111.546875 292.132812 Z M 18.804688 65.90625 " clip-rule="nonzero"/></clipPath><clipPath id="32b2d3b0de"><path d="M 18.804688 65.90625 L 192.984375 -5.5 L 285.730469 220.726562 L 111.546875 292.132812 Z M 18.804688 65.90625 " clip-rule="nonzero"/></clipPath><clipPath id="942beefa00"><path d="M 77 129 L 97 129 L 97 164 L 77 164 Z M 77 129 " clip-rule="nonzero"/></clipPath><clipPath id="b27d4fa5f4"><path d="M 18.804688 65.90625 L 192.984375 -5.5 L 285.730469 220.726562 L 111.546875 292.132812 Z M 18.804688 65.90625 " clip-rule="nonzero"/></clipPath><clipPath id="7d53a2628d"><path d="M 18.804688 65.90625 L 192.984375 -5.5 L 285.730469 220.726562 L 111.546875 292.132812 Z M 18.804688 65.90625 " clip-rule="nonzero"/></clipPath><clipPath id="bdafcf96fa"><path d="M 133 74 L 168 74 L 168 94 L 133 94 Z M 133 74 " clip-rule="nonzero"/></clipPath><clipPath id="dd2d1b2a0d"><path d="M 18.804688 65.90625 L 192.984375 -5.5 L 285.730469 220.726562 L 111.546875 292.132812 Z M 18.804688 65.90625 " clip-rule="nonzero"/></clipPath><clipPath id="6af3914ad8"><path d="M 18.804688 65.90625 L 192.984375 -5.5 L 285.730469 220.726562 L 111.546875 292.132812 Z M 18.804688 65.90625 " clip-rule="nonzero"/></clipPath><clipPath id="627319e9ab"><path d="M 114 40 L 134 40 L 134 75 L 114 75 Z M 114 40 " clip-rule="nonzero"/></clipPath><clipPath id="0123e64242"><path d="M 18.804688 65.90625 L 192.984375 -5.5 L 285.730469 220.726562 L 111.546875 292.132812 Z M 18.804688 65.90625 " clip-rule="nonzero"/></clipPath><clipPath id="4299ae991f"><path d="M 18.804688 65.90625 L 192.984375 -5.5 L 285.730469 220.726562 L 111.546875 292.132812 Z M 18.804688 65.90625 " clip-rule="nonzero"/></clipPath></defs><g clip-path="url(#e812978409)"><g clip-path="url(#f22f768c18)"><g clip-path="url(#f957d29939)"><path fill="#ffc637" d="M 188.3125 199.222656 L 224.550781 234.597656 L 240.417969 218.4375 L 204.328125 183.207031 L 242.546875 162.503906 L 118.066406 114.742188 L 168.5 237.875 Z M 224.660156 245.738281 L 190.449219 212.34375 L 167.691406 256.746094 L 103.832031 100.832031 L 261.355469 161.273438 L 217.503906 185.03125 L 251.585938 218.304688 L 224.660156 245.738281 " fill-opacity="1" fill-rule="nonzero"/></g></g></g><g clip-path="url(#6a151e23ce)"><g clip-path="url(#4e5bc4b29f)"><g clip-path="url(#41e3f62c13)"><path fill="#ffc637" d="M 94.4375 74.570312 C 92.421875 75.398438 90.113281 74.4375 89.289062 72.425781 L 78.351562 45.742188 C 77.523438 43.730469 78.492188 41.425781 80.511719 40.597656 C 82.53125 39.773438 84.835938 40.734375 85.660156 42.746094 L 96.601562 69.429688 C 97.425781 71.441406 96.457031 73.742188 94.4375 74.570312 " fill-opacity="1" fill-rule="nonzero"/></g></g></g><g clip-path="url(#04d3496c60)"><g clip-path="url(#ef9cdfc575)"><g clip-path="url(#4c6703e7b9)"><path fill="#ffc637" d="M 76.078125 92.8125 C 75.140625 93.195312 74.058594 93.222656 73.054688 92.804688 L 46.390625 81.695312 C 44.378906 80.859375 43.433594 78.550781 44.277344 76.542969 C 45.121094 74.535156 47.4375 73.585938 49.449219 74.421875 L 76.109375 85.53125 C 78.121094 86.371094 79.066406 88.675781 78.222656 90.683594 C 77.800781 91.6875 77.011719 92.429688 76.078125 92.8125 " fill-opacity="1" fill-rule="nonzero"/></g></g></g><g clip-path="url(#dfd04eec7f)"><g clip-path="url(#843e76eef4)"><g clip-path="url(#32b2d3b0de)"><path fill="#ffc637" d="M 75.992188 118.636719 L 49.222656 129.609375 C 47.203125 130.4375 44.898438 129.476562 44.074219 127.464844 C 43.246094 125.453125 44.214844 123.148438 46.234375 122.320312 L 73.003906 111.347656 C 75.023438 110.519531 77.328125 111.480469 78.152344 113.492188 C 78.976562 115.503906 78.007812 117.808594 75.992188 118.636719 " fill-opacity="1" fill-rule="nonzero"/></g></g></g><g clip-path="url(#942beefa00)"><g clip-path="url(#b27d4fa5f4)"><g clip-path="url(#7d53a2628d)"><path fill="#ffc637" d="M 83.039062 163.542969 C 82.101562 163.929688 81.023438 163.957031 80.015625 163.535156 C 78.003906 162.699219 77.058594 160.390625 77.902344 158.382812 L 89.097656 131.757812 C 89.941406 129.746094 92.253906 128.800781 94.265625 129.636719 C 96.277344 130.472656 97.222656 132.78125 96.378906 134.789062 L 85.1875 161.417969 C 84.761719 162.421875 83.972656 163.160156 83.039062 163.542969 " fill-opacity="1" fill-rule="nonzero"/></g></g></g><g clip-path="url(#bdafcf96fa)"><g clip-path="url(#dd2d1b2a0d)"><g clip-path="url(#6af3914ad8)"><path fill="#ffc637" d="M 165.332031 81.90625 L 138.5625 92.878906 C 136.542969 93.707031 134.238281 92.746094 133.414062 90.734375 C 132.585938 88.722656 133.554688 86.417969 135.574219 85.59375 L 162.34375 74.617188 C 164.363281 73.789062 166.667969 74.75 167.492188 76.765625 C 168.316406 78.777344 167.347656 81.078125 165.332031 81.90625 " fill-opacity="1" fill-rule="nonzero"/></g></g></g><g clip-path="url(#627319e9ab)"><g clip-path="url(#0123e64242)"><g clip-path="url(#4299ae991f)"><path fill="#ffc637" d="M 120.320312 74.601562 C 119.386719 74.984375 118.304688 75.011719 117.296875 74.589844 C 115.289062 73.753906 114.34375 71.445312 115.1875 69.4375 L 126.378906 42.808594 C 127.222656 40.804688 129.535156 39.855469 131.546875 40.691406 C 133.558594 41.53125 134.503906 43.835938 133.660156 45.84375 L 122.46875 72.472656 C 122.046875 73.476562 121.257812 74.214844 120.320312 74.601562 " fill-opacity="1" fill-rule="nonzero"/></g></g></g></svg>