<svg xmlns="http://www.w3.org/2000/svg" xmlns:xlink="http://www.w3.org/1999/xlink" width="400" zoomAndPan="magnify" viewBox="0 0 300 299.999988" height="400" preserveAspectRatio="xMidYMid meet" version="1.0"><defs><clipPath id="a9736c5bb1"><path d="M 9.371094 62.105469 L 250 62.105469 L 250 239.855469 L 9.371094 239.855469 Z M 9.371094 62.105469 " clip-rule="nonzero"/></clipPath><clipPath id="6ea90d481e"><path d="M 201 106 L 294.371094 106 L 294.371094 200 L 201 200 Z M 201 106 " clip-rule="nonzero"/></clipPath></defs><path fill="#ffc637" d="M 111.792969 195.417969 C 109.34375 195.417969 107.339844 197.417969 107.339844 199.863281 C 107.339844 202.304688 109.34375 204.304688 111.792969 204.304688 L 147.417969 204.304688 C 149.867188 204.304688 151.871094 202.304688 151.871094 199.863281 C 151.871094 197.417969 149.867188 195.417969 147.417969 195.417969 Z M 111.792969 195.417969 " fill-opacity="1" fill-rule="nonzero"/><path fill="#ffc637" d="M 49.671875 198.527344 C 49.671875 199.03125 49.574219 199.511719 49.382812 199.972656 C 49.191406 200.4375 48.917969 200.84375 48.5625 201.199219 C 48.207031 201.554688 47.796875 201.828125 47.335938 202.019531 C 46.871094 202.210938 46.386719 202.304688 45.886719 202.304688 C 45.382812 202.304688 44.902344 202.210938 44.4375 202.019531 C 43.972656 201.828125 43.566406 201.554688 43.210938 201.199219 C 42.855469 200.84375 42.582031 200.4375 42.390625 199.972656 C 42.199219 199.511719 42.101562 199.03125 42.101562 198.527344 C 42.101562 198.027344 42.199219 197.546875 42.390625 197.082031 C 42.582031 196.621094 42.855469 196.210938 43.210938 195.859375 C 43.566406 195.503906 43.972656 195.230469 44.4375 195.039062 C 44.902344 194.847656 45.382812 194.75 45.886719 194.75 C 46.386719 194.75 46.871094 194.847656 47.335938 195.039062 C 47.796875 195.230469 48.207031 195.503906 48.5625 195.859375 C 48.917969 196.210938 49.191406 196.621094 49.382812 197.082031 C 49.574219 197.546875 49.671875 198.027344 49.671875 198.527344 Z M 49.671875 198.527344 " fill-opacity="1" fill-rule="nonzero"/><path fill="#ffc637" d="M 34.753906 198.527344 C 34.753906 199.03125 34.65625 199.511719 34.464844 199.972656 C 34.273438 200.4375 34 200.84375 33.644531 201.199219 C 33.289062 201.554688 32.878906 201.828125 32.417969 202.019531 C 31.953125 202.210938 31.46875 202.304688 30.96875 202.304688 C 30.464844 202.304688 29.984375 202.210938 29.519531 202.019531 C 29.054688 201.828125 28.648438 201.554688 28.292969 201.199219 C 27.9375 200.84375 27.664062 200.4375 27.472656 199.972656 C 27.28125 199.511719 27.183594 199.03125 27.183594 198.527344 C 27.183594 198.027344 27.28125 197.546875 27.472656 197.082031 C 27.664062 196.621094 27.9375 196.210938 28.292969 195.859375 C 28.648438 195.503906 29.054688 195.230469 29.519531 195.039062 C 29.984375 194.847656 30.464844 194.75 30.96875 194.75 C 31.46875 194.75 31.953125 194.847656 32.417969 195.039062 C 32.878906 195.230469 33.289062 195.503906 33.644531 195.859375 C 34 196.210938 34.273438 196.621094 34.464844 197.082031 C 34.65625 197.546875 34.753906 198.027344 34.753906 198.527344 Z M 34.753906 198.527344 " fill-opacity="1" fill-rule="nonzero"/><path fill="#ffc637" d="M 108.898438 97.4375 C 107.5625 95.4375 104.667969 94.769531 102.664062 96.101562 L 62.585938 122.765625 C 61.25 123.652344 60.582031 124.988281 60.582031 126.542969 C 60.582031 128.097656 61.25 129.429688 62.585938 130.320312 C 62.585938 130.320312 102.664062 156.980469 102.664062 156.980469 C 104.667969 158.3125 107.5625 157.871094 108.898438 155.648438 C 110.234375 153.648438 109.789062 150.757812 107.5625 149.425781 L 73.050781 126.542969 L 107.5625 103.65625 C 109.566406 102.324219 110.234375 99.433594 108.898438 97.4375 Z M 108.898438 97.4375 " fill-opacity="1" fill-rule="nonzero"/><path fill="#ffc637" d="M 150.3125 155.648438 C 151.648438 157.648438 154.542969 158.3125 156.546875 156.980469 L 196.625 130.320312 C 197.960938 129.429688 198.628906 128.097656 198.628906 126.542969 C 198.628906 124.988281 197.960938 123.652344 196.625 122.765625 L 156.546875 96.101562 C 154.542969 94.769531 151.648438 95.214844 150.3125 97.4375 C 148.976562 99.433594 149.421875 102.324219 151.648438 103.65625 L 186.160156 126.542969 L 151.648438 149.425781 C 149.644531 150.757812 148.976562 153.648438 150.3125 155.648438 Z M 150.3125 155.648438 " fill-opacity="1" fill-rule="nonzero"/><path fill="#ffc637" d="M 134.28125 92.101562 L 116.46875 158.757812 C 115.800781 161.203125 117.359375 163.644531 119.585938 164.089844 C 120.03125 164.089844 120.253906 164.3125 120.699219 164.3125 C 122.703125 164.3125 124.484375 162.980469 124.929688 160.980469 L 142.742188 94.324219 C 143.410156 91.882812 141.851562 89.4375 139.625 88.992188 C 137.398438 88.328125 134.949219 89.660156 134.28125 92.101562 Z M 134.28125 92.101562 " fill-opacity="1" fill-rule="nonzero"/><g clip-path="url(#a9736c5bb1)"><path fill="#ffc637" d="M 111.792969 230.96875 L 98.433594 230.96875 C 95.984375 230.96875 93.980469 232.96875 93.980469 235.410156 C 93.980469 237.855469 95.984375 239.855469 98.433594 239.855469 L 160.777344 239.855469 C 163.226562 239.855469 165.230469 237.855469 165.230469 235.410156 C 165.230469 232.96875 163.226562 230.96875 160.777344 230.96875 L 147.417969 230.96875 L 147.417969 217.636719 L 236.480469 217.636719 C 242.269531 217.636719 247.167969 213.859375 248.949219 208.75 L 244.273438 208.75 C 242.269531 208.75 240.488281 208.527344 238.707031 207.859375 C 238.039062 208.304688 237.148438 208.75 236.257812 208.75 L 22.730469 208.75 C 20.28125 208.75 18.277344 206.75 18.277344 204.304688 L 18.277344 190.972656 L 206.644531 190.972656 L 205.976562 190.308594 C 203.75 188.085938 201.96875 185.199219 201.078125 182.085938 L 18.277344 182.085938 L 18.277344 75.441406 C 18.277344 72.996094 20.28125 70.996094 22.730469 70.996094 L 236.480469 70.996094 C 238.929688 70.996094 240.933594 72.996094 240.933594 75.441406 L 240.933594 98.101562 C 242.046875 97.878906 243.160156 97.65625 244.496094 97.65625 L 249.839844 97.65625 L 249.839844 75.441406 C 249.839844 68.109375 243.828125 62.109375 236.480469 62.109375 L 22.730469 62.109375 C 15.382812 62.109375 9.371094 68.109375 9.371094 75.441406 L 9.371094 204.304688 C 9.371094 211.636719 15.382812 217.636719 22.730469 217.636719 L 111.792969 217.636719 Z M 120.699219 217.636719 L 138.511719 217.636719 L 138.511719 230.96875 L 120.699219 230.96875 Z M 120.699219 217.636719 " fill-opacity="1" fill-rule="nonzero"/></g><g clip-path="url(#6ea90d481e)"><path fill="#ffc637" d="M 285.6875 139.207031 C 285.242188 138.09375 284.796875 137.207031 284.351562 136.09375 C 287.246094 131.875 286.800781 126.097656 283.015625 122.320312 L 278.5625 117.875 C 276.558594 115.878906 273.664062 114.765625 270.769531 114.765625 C 268.542969 114.765625 266.539062 115.433594 264.757812 116.542969 C 263.867188 116.097656 262.753906 115.65625 261.640625 115.210938 C 260.527344 110.101562 256.074219 106.546875 250.953125 106.546875 L 244.71875 106.546875 C 239.375 106.546875 234.921875 110.324219 234.03125 115.210938 C 232.917969 115.65625 232.027344 116.097656 230.914062 116.542969 C 229.132812 115.433594 227.128906 114.765625 224.902344 114.765625 C 222.007812 114.765625 219.113281 115.878906 217.109375 117.875 L 212.65625 122.320312 C 208.871094 126.097656 208.425781 131.875 211.320312 136.09375 C 210.875 136.984375 210.429688 138.09375 209.984375 139.207031 C 204.863281 140.316406 201.300781 144.761719 201.300781 149.871094 L 201.300781 156.09375 C 201.300781 161.425781 205.085938 165.867188 209.984375 166.757812 C 210.429688 167.867188 210.875 168.757812 211.320312 169.867188 C 210.207031 171.644531 209.539062 173.644531 209.539062 175.867188 C 209.539062 178.753906 210.652344 181.644531 212.65625 183.640625 L 217.109375 188.085938 C 219.113281 190.085938 222.007812 191.195312 224.902344 191.195312 C 227.128906 191.195312 229.132812 190.53125 230.914062 189.417969 C 231.804688 189.863281 232.917969 190.308594 234.03125 190.753906 C 235.144531 195.863281 239.597656 199.417969 244.71875 199.417969 L 250.953125 199.417969 C 256.296875 199.417969 260.75 195.640625 261.640625 190.753906 C 262.753906 190.308594 263.644531 189.863281 264.757812 189.417969 C 266.539062 190.53125 268.542969 191.195312 270.769531 191.195312 C 273.664062 191.195312 276.558594 190.085938 278.5625 188.085938 L 283.015625 183.640625 C 285.019531 181.644531 286.132812 178.753906 286.132812 175.867188 C 286.132812 173.644531 285.464844 171.644531 284.351562 169.867188 C 284.796875 168.976562 285.242188 167.867188 285.6875 166.757812 C 290.808594 165.644531 294.371094 161.203125 294.371094 156.09375 L 294.371094 149.871094 C 294.371094 144.761719 290.585938 140.316406 285.6875 139.207031 Z M 285.464844 156.3125 C 285.464844 157.425781 284.574219 158.3125 283.460938 158.3125 L 278.785156 158.3125 C 277.894531 163.203125 276.113281 167.421875 273.441406 171.199219 L 276.78125 174.53125 C 277.671875 175.421875 277.671875 176.753906 276.78125 177.421875 L 272.328125 181.863281 C 271.882812 182.308594 271.4375 182.53125 270.769531 182.53125 C 270.101562 182.53125 269.65625 182.308594 269.210938 181.863281 L 265.871094 178.53125 C 262.085938 181.199219 257.632812 183.199219 252.957031 183.863281 L 252.957031 188.53125 C 252.957031 189.640625 252.066406 190.53125 250.953125 190.53125 L 244.71875 190.53125 C 243.605469 190.53125 242.714844 189.640625 242.714844 188.53125 L 242.714844 184.308594 C 237.816406 183.421875 233.585938 181.644531 229.800781 178.976562 L 226.015625 182.085938 C 225.570312 182.53125 225.125 182.753906 224.457031 182.753906 C 223.789062 182.753906 223.566406 182.53125 223.121094 182.085938 L 218.667969 177.644531 C 217.777344 176.753906 217.777344 175.421875 218.667969 174.753906 L 222.007812 171.421875 C 219.335938 167.644531 217.332031 163.203125 216.664062 158.535156 L 211.988281 158.535156 C 210.875 158.535156 209.984375 157.648438 209.984375 156.535156 L 209.984375 150.316406 C 209.984375 149.203125 210.875 148.316406 211.988281 148.316406 L 216.441406 148.316406 C 217.332031 143.425781 219.113281 139.207031 221.785156 135.429688 L 218.667969 131.652344 C 217.777344 130.761719 217.777344 129.429688 218.667969 128.761719 L 223.121094 124.320312 C 223.566406 123.875 224.011719 123.652344 224.679688 123.652344 C 225.347656 123.652344 225.792969 123.875 226.238281 124.320312 L 229.578125 127.652344 C 233.363281 124.988281 237.816406 122.988281 242.492188 122.320312 L 242.492188 117.65625 C 242.492188 116.542969 243.382812 115.65625 244.496094 115.65625 L 250.730469 115.65625 C 251.84375 115.65625 252.734375 116.542969 252.734375 117.65625 L 252.734375 122.097656 C 257.632812 122.988281 261.863281 124.765625 265.648438 127.429688 L 268.988281 124.097656 C 269.433594 123.652344 269.878906 123.429688 270.546875 123.429688 C 271.214844 123.429688 271.660156 123.652344 272.105469 124.097656 L 276.558594 128.542969 C 277.449219 129.429688 277.449219 130.761719 276.558594 131.429688 L 273.21875 134.761719 C 275.890625 138.539062 277.894531 142.984375 278.5625 147.648438 L 283.238281 147.648438 C 284.351562 147.648438 285.242188 148.539062 285.242188 149.648438 L 285.242188 156.3125 Z M 285.464844 156.3125 " fill-opacity="1" fill-rule="nonzero"/></g><path fill="#ffc637" d="M 247.613281 135.429688 C 237.816406 135.429688 229.800781 143.425781 229.800781 153.203125 C 229.800781 162.980469 237.816406 170.976562 247.613281 170.976562 C 257.410156 170.976562 265.425781 162.980469 265.425781 153.203125 C 265.425781 143.425781 257.410156 135.429688 247.613281 135.429688 Z M 247.613281 162.089844 C 242.714844 162.089844 238.707031 158.089844 238.707031 153.203125 C 238.707031 148.316406 242.714844 144.316406 247.613281 144.316406 C 252.511719 144.316406 256.519531 148.316406 256.519531 153.203125 C 256.519531 158.089844 252.511719 162.089844 247.613281 162.089844 Z M 247.613281 162.089844 " fill-opacity="1" fill-rule="nonzero"/></svg>