<svg xmlns="http://www.w3.org/2000/svg" xmlns:xlink="http://www.w3.org/1999/xlink" width="400" zoomAndPan="magnify" viewBox="0 0 300 299.999988" height="400" preserveAspectRatio="xMidYMid meet" version="1.0"><defs><clipPath id="946b3d6b2d"><path d="M 0 53.613281 L 296.25 53.613281 L 296.25 246.363281 L 0 246.363281 Z M 0 53.613281 " clip-rule="nonzero"/></clipPath><clipPath id="cfaeb55d2b"><path d="M 88.003906 97.300781 L 208.003906 97.300781 L 208.003906 217.300781 L 88.003906 217.300781 Z M 88.003906 97.300781 " clip-rule="nonzero"/></clipPath></defs><g clip-path="url(#946b3d6b2d)"><path fill="#ffc637" d="M 295.664062 239.0625 C 295.304688 241.292969 294.671875 243.320312 293.4375 245.125 C 292.9375 245.851562 292.375 246.363281 291.375 246.363281 C 256.964844 246.347656 222.554688 246.347656 188.144531 246.347656 C 187.222656 246.347656 186.300781 246.347656 185.375 246.347656 C 180.871094 246.347656 176.371094 246.367188 171.867188 246.339844 C 170.261719 246.332031 168.65625 246.15625 167.054688 246.15625 C 131.878906 246.144531 96.699219 246.148438 61.523438 246.148438 C 59.351562 246.148438 57.179688 246.148438 55.007812 246.148438 C 50.941406 246.148438 46.878906 246.160156 42.816406 246.136719 C 41.886719 246.132812 40.957031 245.960938 40.027344 245.960938 C 39.109375 245.960938 38.191406 246.136719 37.273438 246.136719 C 27.179688 246.152344 17.082031 246.175781 6.984375 246.132812 C 2.960938 246.117188 1.535156 244.625 0.691406 240.792969 C 0.00390625 237.671875 0.402344 234.472656 0.605469 231.304688 C 0.628906 230.9375 0.449219 230.558594 0.457031 230.1875 C 0.507812 228.136719 0.617188 226.082031 0.636719 224.027344 C 0.648438 222.964844 0.515625 221.902344 0.449219 220.839844 C 0.4375 220.636719 0.429688 220.433594 0.453125 220.234375 C 0.507812 219.71875 0.640625 219.207031 0.644531 218.695312 C 0.65625 213.355469 0.625 208.011719 0.660156 202.671875 C 0.695312 197.199219 0.789062 191.730469 0.851562 186.257812 C 0.863281 185.503906 0.847656 184.75 0.855469 183.996094 C 0.921875 176.804688 0.992188 169.613281 1.054688 162.421875 C 1.066406 161.160156 1.03125 159.902344 1.0625 158.640625 C 1.109375 156.566406 1.207031 154.492188 1.246094 152.414062 C 1.257812 151.90625 1.0625 151.390625 1.066406 150.878906 C 1.117188 146.613281 1.191406 142.34375 1.257812 138.074219 C 1.269531 137.421875 1.257812 136.769531 1.257812 136.117188 C 1.257812 134.386719 1.246094 132.652344 1.261719 130.921875 C 1.324219 125.078125 1.394531 119.238281 1.460938 113.394531 C 1.46875 112.707031 1.457031 112.023438 1.460938 111.335938 C 1.527344 103.875 1.601562 96.414062 1.660156 88.953125 C 1.679688 86.511719 1.644531 84.070312 1.667969 81.628906 C 1.722656 75.820312 1.804688 70.011719 1.863281 64.203125 C 1.878906 62.707031 1.886719 61.210938 1.863281 59.714844 C 1.808594 56.296875 4.273438 53.609375 7.976562 53.613281 C 41.371094 53.660156 74.769531 53.617188 108.167969 53.644531 C 169.089844 53.695312 230.015625 53.769531 290.941406 53.851562 C 294.105469 53.855469 295.523438 55.769531 295.613281 58.722656 C 295.789062 64.621094 295.636719 70.527344 295.671875 76.429688 C 295.703125 81.507812 295.804688 86.585938 295.863281 91.664062 C 295.882812 93.464844 295.867188 95.261719 295.867188 97.0625 C 295.867188 104.765625 295.867188 112.46875 295.867188 120.171875 C 295.867188 136.953125 295.863281 153.730469 295.875 170.507812 C 295.878906 172.125 296.03125 173.738281 296.0625 175.351562 C 296.097656 177.164062 296.070312 178.976562 296.070312 180.785156 C 296.070312 182.652344 296.097656 184.519531 296.0625 186.386719 C 296.03125 188.160156 295.875 189.929688 295.882812 191.703125 C 295.894531 194.316406 296.03125 196.933594 296.0625 199.546875 C 296.097656 202.628906 296.089844 205.710938 296.0625 208.792969 C 296.046875 210.328125 295.871094 211.863281 295.882812 213.398438 C 295.898438 216.148438 296.019531 218.898438 296.066406 221.648438 C 296.148438 226.222656 296.25 230.792969 296.242188 235.363281 C 296.242188 236.5625 295.867188 237.761719 295.664062 239.0625 M 142.179688 77.121094 C 130.925781 77.121094 119.667969 77.132812 108.414062 77.113281 C 106.054688 77.109375 103.695312 76.929688 101.335938 76.925781 C 69.898438 76.914062 38.464844 76.917969 7.027344 76.917969 C 6.824219 76.917969 6.574219 76.84375 6.429688 76.933594 C 6.160156 77.109375 5.769531 77.363281 5.746094 77.613281 C 5.621094 79.132812 5.539062 80.65625 5.523438 82.179688 C 5.4375 90.25 5.378906 98.316406 5.3125 106.386719 C 5.242188 114.523438 5.175781 122.65625 5.109375 130.792969 C 5.039062 139.265625 4.972656 147.738281 4.90625 156.214844 C 4.839844 164.652344 4.773438 173.09375 4.703125 181.53125 C 4.640625 188.992188 4.566406 196.453125 4.503906 203.914062 C 4.429688 212.285156 4.359375 220.65625 4.300781 229.03125 C 4.28125 232.199219 4.269531 235.371094 4.316406 238.542969 C 4.328125 239.398438 4.507812 240.269531 4.722656 241.101562 C 4.898438 241.769531 5.328125 242.128906 6.152344 242.121094 C 11.164062 242.074219 16.171875 242.097656 21.179688 242.097656 C 23.253906 242.097656 25.324219 242.078125 27.394531 242.109375 C 28.347656 242.121094 29.296875 242.300781 30.25 242.289062 C 33.632812 242.253906 37.011719 242.144531 40.394531 242.105469 C 43.019531 242.074219 45.644531 242.074219 48.265625 242.105469 C 51.984375 242.148438 55.707031 242.285156 59.425781 242.292969 C 105.355469 242.371094 151.28125 242.441406 197.210938 242.492188 C 200.253906 242.496094 203.300781 242.359375 206.34375 242.3125 C 206.824219 242.304688 207.304688 242.5 207.78125 242.492188 C 209.417969 242.457031 211.054688 242.34375 212.695312 242.3125 C 213.339844 242.300781 213.992188 242.5 214.636719 242.492188 C 217.523438 242.449219 220.414062 242.328125 223.300781 242.316406 C 225.296875 242.308594 227.296875 242.472656 229.292969 242.488281 C 230.527344 242.5 231.761719 242.304688 232.992188 242.316406 C 235.035156 242.332031 237.078125 242.492188 239.121094 242.496094 C 255.734375 242.511719 272.347656 242.503906 288.960938 242.503906 C 289.199219 242.503906 289.472656 242.578125 289.664062 242.488281 C 290.128906 242.265625 290.851562 242.050781 290.953125 241.6875 C 291.46875 239.859375 292.117188 237.996094 292.164062 236.128906 C 292.3125 230.117188 292.21875 224.097656 292.21875 218.082031 C 292.21875 216.550781 292.21875 215.023438 292.21875 213.492188 C 292.21875 206.847656 292.226562 200.203125 292.210938 193.554688 C 292.207031 192.671875 292.019531 191.789062 292.03125 190.90625 C 292.050781 189.324219 292.207031 187.746094 292.207031 186.164062 C 292.203125 184.347656 292.039062 182.53125 292.027344 180.714844 C 292 175.945312 291.996094 171.179688 292.027344 166.410156 C 292.039062 164.265625 292.199219 162.125 292.207031 159.980469 C 292.210938 158.144531 292.035156 156.304688 292.027344 154.464844 C 292 149.054688 292.015625 143.648438 292.015625 138.238281 C 292.015625 128.847656 292.027344 119.457031 292.007812 110.070312 C 292.003906 108.351562 291.859375 106.636719 291.820312 104.921875 C 291.789062 103.3125 291.816406 101.703125 291.816406 100.097656 C 291.816406 95.429688 291.808594 90.761719 291.820312 86.09375 C 291.824219 85.488281 291.980469 84.878906 291.972656 84.269531 C 291.941406 82.324219 291.675781 80.359375 291.894531 78.445312 C 292.011719 77.421875 291.855469 77.320312 291.011719 77.316406 C 276.078125 77.257812 261.148438 77.183594 246.21875 77.132812 C 244.917969 77.125 243.617188 77.308594 242.316406 77.308594 C 241.117188 77.3125 239.917969 77.128906 238.71875 77.128906 C 206.605469 77.117188 174.496094 77.121094 142.179688 77.121094 M 71.871094 69.632812 C 77.109375 69.5625 82.347656 69.445312 87.585938 69.445312 C 92.621094 69.441406 97.660156 69.53125 102.695312 69.644531 C 105.746094 69.710938 108.792969 70 111.84375 70.019531 C 120.992188 70.070312 130.140625 70.050781 139.289062 70.027344 C 142.164062 70.019531 145.039062 69.90625 147.914062 69.832031 C 150.285156 69.773438 152.652344 69.648438 155.019531 69.640625 C 162.480469 69.617188 169.941406 69.625 177.402344 69.648438 C 178.011719 69.648438 178.195312 69.535156 178.164062 68.898438 C 178.101562 67.6875 178.167969 66.46875 178.136719 65.257812 C 178.117188 64.574219 178.210938 63.753906 177.867188 63.265625 C 177.65625 62.964844 176.71875 63.175781 176.105469 63.152344 C 176.039062 63.152344 175.96875 63.15625 175.902344 63.152344 C 168.53125 63.019531 161.160156 62.859375 153.789062 62.757812 C 149.796875 62.703125 145.800781 62.722656 141.804688 62.757812 C 138.492188 62.785156 135.175781 62.886719 131.863281 62.949219 C 128.007812 63.023438 124.152344 63.078125 120.300781 63.15625 C 118.199219 63.203125 116.101562 63.351562 114.003906 63.34375 C 110.925781 63.332031 107.847656 63.261719 104.769531 63.144531 C 100.632812 62.984375 96.5 62.71875 92.363281 62.566406 C 91.011719 62.515625 89.652344 62.722656 88.292969 62.738281 C 85.683594 62.769531 83.070312 62.699219 80.460938 62.761719 C 76.804688 62.847656 73.148438 63.027344 69.488281 63.144531 C 69.089844 63.15625 68.910156 63.195312 68.921875 63.671875 C 68.953125 65.355469 68.914062 67.042969 68.957031 68.726562 C 68.960938 68.964844 69.230469 69.359375 69.429688 69.398438 C 70.164062 69.542969 70.921875 69.5625 71.871094 69.632812 M 19.699219 64.265625 C 19.148438 62.746094 18.328125 61.449219 16.789062 60.753906 C 15.625 60.230469 14.433594 60.417969 13.203125 60.46875 C 11.691406 60.53125 10.726562 61.296875 10.214844 62.464844 C 9.351562 64.445312 9.644531 66.492188 10.511719 68.445312 C 11.808594 71.359375 16.421875 71.203125 18.082031 69.6875 C 18.628906 69.1875 19.085938 68.496094 19.359375 67.804688 C 19.773438 66.75 20.25 65.644531 19.699219 64.265625 M 49.382812 61.332031 C 47.542969 60.386719 45.511719 60.34375 44.21875 62.039062 C 43.914062 62.445312 43.644531 62.875 43.359375 63.296875 C 42.632812 64.382812 42.484375 65.597656 42.554688 66.863281 C 42.652344 68.558594 43.761719 69.660156 44.933594 70.609375 C 46.917969 72.214844 50.796875 71.765625 51.679688 68.75 C 52.019531 67.589844 52.046875 66.320312 52.101562 65.09375 C 52.167969 63.535156 51.054688 61.957031 49.382812 61.332031 M 26.992188 64.671875 C 27.023438 65.78125 26.824219 66.960938 27.136719 67.988281 C 27.648438 69.679688 29.210938 70.511719 30.757812 70.984375 C 31.667969 71.261719 32.972656 71.238281 33.75 70.773438 C 35.644531 69.636719 36.570312 66.160156 35.570312 64.179688 C 35.125 63.304688 34.273438 62.640625 33.6875 61.820312 C 32.546875 60.230469 30.09375 59.855469 28.8125 61.300781 C 28.023438 62.195312 27.585938 63.402344 26.992188 64.671875 Z M 26.992188 64.671875 " fill-opacity="1" fill-rule="nonzero"/></g><g clip-path="url(#cfaeb55d2b)"><path fill="#ffc637" d="M 108.71875 128.730469 C 117.550781 116.609375 131.855469 108.730469 148.003906 108.730469 C 162.851562 108.730469 176.148438 115.394531 185.054688 125.894531 C 177.109375 123.195312 168.449219 130.714844 171.265625 139.585938 L 174.996094 151.351562 L 164.898438 176.308594 L 154.101562 149.453125 L 150.363281 140.15625 L 153.71875 140.15625 C 156.871094 140.15625 159.429688 137.597656 159.429688 134.445312 C 159.429688 131.289062 156.871094 128.730469 153.71875 128.730469 L 136.574219 128.730469 C 133.417969 128.730469 130.859375 131.289062 130.859375 134.445312 C 130.859375 137.597656 133.417969 140.15625 136.574219 140.15625 L 138.046875 140.15625 L 142.621094 151.539062 L 132.003906 176.828125 L 116.601562 140.15625 L 119.429688 140.15625 C 122.585938 140.15625 125.144531 137.597656 125.144531 134.445312 C 125.144531 131.289062 122.585938 128.730469 119.429688 128.730469 Z M 103.355469 138.140625 C 100.832031 144.019531 99.429688 150.496094 99.429688 157.300781 C 99.429688 184.125 121.175781 205.871094 148.003906 205.871094 C 174.828125 205.871094 196.574219 184.125 196.574219 157.300781 C 196.574219 150.335938 195.109375 143.714844 192.46875 137.726562 C 192.347656 138.621094 192.117188 139.511719 191.765625 140.378906 L 186.363281 153.730469 L 170.179688 193.730469 C 169.308594 195.890625 167.207031 197.304688 164.878906 197.300781 C 162.546875 197.296875 160.453125 195.878906 159.582031 193.71875 L 148.683594 166.617188 L 137.269531 193.800781 C 136.378906 195.921875 134.304688 197.300781 132.003906 197.300781 C 129.703125 197.300781 127.625 195.921875 126.734375 193.800781 Z M 148.003906 97.300781 C 114.867188 97.300781 88.003906 124.164062 88.003906 157.300781 C 88.003906 190.4375 114.867188 217.300781 148.003906 217.300781 C 181.140625 217.300781 208.003906 190.4375 208.003906 157.300781 C 208.003906 124.164062 181.140625 97.300781 148.003906 97.300781 Z M 148.003906 97.300781 " fill-opacity="1" fill-rule="evenodd"/></g></svg>